HIERARCHY
ROOT RootJoint
{
    OFFSET   0.000000   0.000000   0.000000
    CHANNELS 6 Xposition Yposition Zposition Xrotation Yrotation Zrotation
    JOINT pelvis_lowerback
    {
        OFFSET   0.000000   0.093605   0.000000
        CHANNELS 3 Xrotation Yrotation Zrotation
        JOINT lowerback_torso
        {
            OFFSET   0.000000   0.100000   0.000000
            CHANNELS 3 Xrotation Yrotation Zrotation
            JOINT torso_head
            {
                OFFSET   0.000000   0.282350   0.000000
                CHANNELS 3 Xrotation Yrotation Zrotation
                End Site
                {
                    OFFSET   0.000000   0.192650   0.000000
                }
            }
            JOINT rTorso_Clavicle
            {
                OFFSET  -0.001000   0.157500   0.000000
                CHANNELS 3 Xrotation Yrotation Zrotation
                JOINT rShoulder
                {
                    OFFSET  -0.117647   0.000000   0.000000
                    CHANNELS 3 Xrotation Yrotation Zrotation
                    JOINT rElbow
                    {
                        OFFSET  -0.245000   0.000000   0.000000
                        CHANNELS 3 Xrotation Yrotation Zrotation
                        JOINT rWrist
                        {
                            OFFSET  -0.240000   0.000000   0.000000
                            CHANNELS 3 Xrotation Yrotation Zrotation
                            End Site
                            {
                                OFFSET  -0.116353  -0.002500   0.000000
                            }
                        }
                    }
                }
            }
            JOINT lTorso_Clavicle
            {
                OFFSET   0.001000   0.157500   0.000000
                CHANNELS 3 Xrotation Yrotation Zrotation
                JOINT lShoulder
                {
                    OFFSET   0.117647   0.000000   0.000000
                    CHANNELS 3 Xrotation Yrotation Zrotation
                    JOINT lElbow
                    {
                        OFFSET   0.245000   0.000000   0.000000
                        CHANNELS 3 Xrotation Yrotation Zrotation
                        JOINT lWrist
                        {
                            OFFSET   0.240000   0.000000   0.000000
                            CHANNELS 3 Xrotation Yrotation Zrotation
                            End Site
                            {
                                OFFSET   0.116353  -0.002500   0.000000
                            }
                        }
                    }
                }
            }
        }
    }
    JOINT rHip
    {
        OFFSET  -0.100000  -0.051395   0.000000
        CHANNELS 3 Xrotation Yrotation Zrotation
        JOINT rKnee
        {
            OFFSET   0.000000  -0.410000   0.000000
            CHANNELS 3 Xrotation Yrotation Zrotation
            JOINT rAnkle
            {
                OFFSET   0.000000  -0.390000   0.000000
                CHANNELS 3 Xrotation Yrotation Zrotation
                JOINT rToeJoint
                {
                    OFFSET   0.000000  -0.050000   0.130000
                    CHANNELS 3 Xrotation Yrotation Zrotation
                    End Site
                    {
                        OFFSET  -0.010000   0.002000   0.060000
                    }
                }
            }
        }
    }
    JOINT lHip
    {
        OFFSET   0.100000  -0.051395   0.000000
        CHANNELS 3 Xrotation Yrotation Zrotation
        JOINT lKnee
        {
            OFFSET   0.000000  -0.410000   0.000000
            CHANNELS 3 Xrotation Yrotation Zrotation
            JOINT lAnkle
            {
                OFFSET   0.000000  -0.390000   0.000000
                CHANNELS 3 Xrotation Yrotation Zrotation
                JOINT lToeJoint
                {
                    OFFSET   0.000000  -0.050000   0.130000
                    CHANNELS 3 Xrotation Yrotation Zrotation
                    End Site
                    {
                        OFFSET   0.010000   0.002000   0.060000
                    }
                }
            }
        }
    }
}
MOTION
Frames: 12
Frame Time:   0.008333
 -2.376719   0.925631   3.975860   0.000000   0.000000   0.000000   0.000000   0.000000   0.000000   0.000000   0.000000   0.000000   0.000000   0.000000   0.000000   0.000000   0.000000   0.000000   0.000000   0.000000   0.000000   0.000000   0.000000   0.000000   0.000000   0.000000   0.000000   0.000000   0.000000   0.000000   0.000000   0.000000   0.000000   0.000000   0.000000   0.000000   0.000000   0.000000   0.000000   0.000000   0.000000   0.000000   0.000000   0.000000   0.000000   0.000000   0.000000   0.000000   0.000000   0.000000   0.000000   0.000000   0.000000   0.000000   0.000000   0.000000   0.000000   0.000000   0.000000   0.000000   0.000000   0.000000   0.000000
 -2.376543   0.924694   3.973860  -0.553366  -0.104530   0.001974   1.169572  -0.030542   0.015239  -0.238128  -0.251610  -0.027193  -0.146773   0.037672   0.096946  -0.512745  -0.216976  -0.510025  -0.756781   0.690557   1.028963   0.014165   3.435517   0.026105  -0.309205  -2.044396  -0.586787  -0.661133   0.372493   0.515119  -1.799041   0.509927  -0.666284   0.003282  -3.332222  -0.060617  -0.377349   1.510884   0.617357  -0.391155   0.358820  -0.166493   2.806670   0.004248   0.006092  -2.167280  -0.332705   0.239290   0.161693  -0.000110  -0.000107  -0.827787   0.489278   0.092824   3.531373  -0.002364   0.011968  -1.652411   0.050861  -0.404791   0.104594   0.000284   0.000399
 -2.376247   0.923072   3.971590  -1.313316  -0.325338  -0.021300   2.383381  -0.021167   0.054962  -0.300377  -0.441194  -0.017697  -0.230083   0.060065   0.185069  -0.997146  -0.132872  -0.905576  -1.490252   1.612658   2.085540   0.028642   7.059169   0.045809  -0.643668  -2.911435  -0.980778  -1.295626   0.550884   0.986016  -3.490265   0.831303  -1.304833  -0.000233  -6.581915  -0.104098  -0.816233   2.040245   1.123508  -0.570185   0.706664  -0.438496   5.791056   0.011797   0.007242  -4.177453  -0.653073   0.453985   0.278472   0.000002  -0.000287  -1.655004   0.975277   0.305141   7.439064  -0.005899   0.019453  -3.171109   0.115384  -0.777691   0.238344   0.000477   0.000724
 -2.375818   0.921600   3.968917  -2.182138  -0.768978  -0.108604   3.635972   0.092748   0.148407  -0.278847  -0.522929   0.038183  -0.308992   0.080363   0.264972  -1.445494   0.189129  -1.156747  -2.198062   2.647213   3.154844   0.044854  10.759031   0.059180  -0.961495  -3.203293  -1.257844  -1.886422   0.569171   1.348173  -5.066926   1.036072  -1.935976  -0.005231  -9.664319  -0.132077  -1.239646   2.164754   1.570955  -0.724902   0.973853  -0.617293   8.595985   0.015938  -0.000118  -6.004085  -0.999224   0.719458   0.438630   0.000012  -0.000980  -2.605279   1.321991   0.459848  11.016306  -0.004674   0.013464  -4.932504   0.037875  -1.141304  -0.236075  -0.001030   0.001231
 -2.375233   0.919700   3.966285  -3.112095  -1.272537  -0.184590   4.844944   0.233459   0.231962  -0.207509  -0.557060   0.112893  -0.380734   0.098109   0.338593  -1.857904   0.646958  -1.340490  -2.881051   3.719853   4.212112   0.058857  14.505488   0.069783  -1.261646  -3.179300  -1.393889  -2.433433   0.474768   1.679919  -6.536023   1.160707  -2.537384  -0.012514 -12.573673  -0.150039  -1.642208   2.075467   1.932786  -0.750591   1.244095  -0.905214  11.254003   0.020251  -0.007930  -7.746650  -1.303084   0.905446   0.559808   0.000191  -0.001383  -3.599110   1.711703   0.594361  14.772311  -0.003490   0.008003  -6.454338   0.059192  -1.453660  -1.102092  -0.003180   0.001430
 -2.374584   0.917365   3.963834  -4.064489  -1.871524  -0.313086   5.988857   0.422134   0.352987  -0.121192  -0.538290   0.220953  -0.451538   0.115004   0.407118  -2.238317   1.188593  -1.471375  -3.540654   4.793747   5.242792   0.070041  18.283044   0.079217  -1.545654  -2.964107  -1.443747  -2.940505   0.318348   1.981108  -7.905637   1.241218  -3.105030  -0.020890 -15.308911  -0.160900  -2.024399   1.865432   2.252782  -0.726750   1.476850  -1.189471  13.759753   0.022925  -0.017375  -9.362627  -1.600920   1.087817   0.670650   0.000350  -0.001792  -4.568956   2.076168   0.800530  18.589858  -0.004184   0.000002  -7.789153   0.085532  -1.748307  -2.233833  -0.005283   0.002602
 -2.373876   0.914721   3.961613  -5.039257  -2.545031  -0.492517   7.079219   0.644481   0.504226  -0.024930  -0.478136   0.360743  -0.522996   0.130900   0.472658  -2.588578   1.776964  -1.551526  -4.176527   5.844517   6.247037   0.078541  22.081413   0.087941  -1.815969  -2.633100  -1.430423  -3.410794   0.128442   2.251740  -9.182629   1.298327  -3.640664  -0.029200 -17.873564  -0.166289  -2.387530   1.590757   2.551028  -0.697747   1.657454  -1.428059  16.129002   0.023167  -0.027362 -10.855244  -1.896297   1.275288   0.775175   0.000440  -0.002206  -5.505681   2.414622   1.067230  22.392520  -0.006503  -0.009035  -8.996752   0.118489  -2.026436  -2.924636  -0.005725   0.003376
 -2.373147   0.912576   3.959032  -5.627660  -3.300904  -0.645007   7.892058   0.870032   0.597684  -0.088566  -0.425247   0.513747  -0.674854   0.209417   0.545053  -2.881385   2.202298  -1.651298  -4.583239   7.166401   7.273194   0.086539  25.886971   0.086481  -2.206895  -2.298737  -1.269960  -3.788299  -0.052604   2.483214 -10.806537   1.472219  -4.176094  -0.037685 -20.342734  -0.177041  -2.834177   1.295552   2.900959  -1.299820   1.580858  -1.500756  18.006098   0.017291  -0.037335 -11.518261  -2.438857   1.587201   1.186898  -0.000280  -0.006907  -6.828859   2.815190   1.401134  25.816817  -0.010599  -0.014575  -9.832533   0.281633  -2.121587  -2.297485  -0.004635   0.002218
 -2.372178   0.910475   3.956623  -6.190700  -3.947406  -0.678098   8.678169   1.027210   0.619849  -0.152177  -0.411763   0.619018  -0.830749   0.281177   0.611593  -3.144242   2.618484  -1.764433  -4.979043   8.414787   8.239373   0.089909  29.702450   0.084475  -2.582420  -1.929518  -1.038181  -4.140756  -0.260367   2.711706 -12.323517   1.626720  -4.671691  -0.044930 -22.653075  -0.180906  -3.274384   0.984027   3.246062  -1.865187   1.569886  -1.689662  19.806066   0.012662  -0.041903 -12.106397  -2.903296   1.790900   1.571723  -0.000515  -0.009510  -8.144420   3.186876   1.684164  28.949154  -0.014567  -0.015286 -10.616919   0.448916  -2.201742  -1.784020  -0.004076   0.001778
 -2.371008   0.908381   3.954454  -6.745670  -4.521181  -0.651021   9.435601   1.152994   0.624248  -0.197000  -0.420645   0.696324  -0.978044   0.347433   0.671651  -3.385906   3.018843  -1.891749  -5.366646   9.583013   9.136733   0.089638  33.520460   0.082645  -2.941782  -1.559160  -0.818086  -4.467422  -0.485136   2.930310 -13.738115   1.762508  -5.130651  -0.050849 -24.816014  -0.179674  -3.693298   0.654425   3.581126  -2.366908   1.580954  -1.949158  21.512000   0.009123  -0.043564 -12.657621  -3.330571   1.964129   1.928726  -0.000604  -0.010923  -9.428417   3.528885   1.978253  31.843822  -0.018340  -0.013391 -11.351220   0.607080  -2.274420  -1.324047  -0.003849   0.001631
 -2.369653   0.906286   3.952555  -7.292775  -5.050860  -0.584424  10.160901   1.263132   0.621467  -0.225245  -0.437938   0.757793  -1.114953   0.409093   0.727871  -3.609739   3.404338  -2.030136  -5.745624  10.677813   9.970245   0.086456  37.294931   0.081277  -3.284907  -1.178067  -0.623315  -4.770129  -0.715655   3.139992 -15.057137   1.885782  -5.554897  -0.055481 -26.839515  -0.174907  -4.091175   0.313960   3.906628  -2.810803   1.603861  -2.262465  23.129949   0.006452  -0.043670 -13.173293  -3.726555   2.115311   2.256119  -0.000594  -0.011560 -10.671406   3.838690   2.297703  34.525008  -0.021801  -0.010377 -12.037750   0.756474  -2.340115  -0.907814  -0.003829   0.001591
 -2.368119   0.904186   3.950950  -7.830727  -5.545549  -0.488665  10.850955   1.366474   0.615194  -0.241734  -0.453506   0.809356  -1.241489   0.466148   0.782090  -3.819046   3.784459  -2.176277  -6.117164  11.715254  10.746859   0.080497  40.832895   0.079879  -3.611655  -0.716305  -0.446261  -5.050749  -0.948735   3.342281 -16.287270   1.997869  -5.946641  -0.058944 -28.732273  -0.167829  -4.468906  -0.032752   4.223411  -3.201552   1.634871  -2.620265  24.665904   0.004490  -0.042840 -13.654809  -4.094273   2.248239   2.556086  -0.000516  -0.011678 -11.869087   4.114725   2.643459  37.011152  -0.024765  -0.006902 -12.679345   0.897374  -2.399425  -0.529968  -0.003914   0.001598
